<?xml version="1.0" standalone="no"?>
<!DOCTYPE svg PUBLIC "-//W3C//DTD SVG 20010904//EN"
 "http://www.w3.org/TR/2001/REC-SVG-20010904/DTD/svg10.dtd">
<svg version="1.0" xmlns="http://www.w3.org/2000/svg"
 width="300.000000pt" height="300.000000pt" viewBox="0 0 300.000000 300.000000"
 preserveAspectRatio="xMidYMid meet">
<metadata>
Created by potrace 1.10, written by Peter Selinger 2001-2011
</metadata>
<g transform="translate(0.000000,300.000000) scale(0.100000,-0.100000)"
fill="#000000" stroke="none">
<path d="M1479 2541 l-25 -74 -79 2 -79 2 62 -45 c34 -25 62 -50 62 -56 0 -5
-11 -39 -25 -76 l-25 -66 65 47 65 46 57 -45 c32 -25 59 -44 60 -42 2 1 -6 29
-17 61 -11 32 -20 64 -20 71 0 7 27 31 60 53 l61 40 -77 3 -77 3 -22 75 -22
74 -24 -73z m51 -91 c11 -11 25 -20 30 -20 14 0 13 -7 -6 -51 -16 -35 -19 -37
-58 -35 -32 2 -42 7 -44 22 -2 10 -8 23 -13 29 -13 14 -11 35 4 35 8 0 22 9
32 20 10 11 22 20 27 20 4 0 17 -9 28 -20z"/>
<path d="M987 2434 l5 -79 -66 -25 c-36 -13 -66 -27 -66 -31 0 -3 31 -12 69
-19 l70 -13 7 -78 7 -79 34 58 c19 31 38 61 42 65 4 4 40 -1 80 -11 l72 -20
-18 22 c-9 11 -33 37 -51 57 l-34 37 34 53 c54 85 52 80 26 70 -13 -5 -44 -18
-70 -29 l-47 -21 -42 52 c-24 29 -46 56 -50 61 -4 4 -5 -27 -2 -70z m116 -74
c9 0 13 -13 12 -40 -1 -34 -6 -43 -29 -55 -38 -20 -43 -19 -71 13 -30 33 -30
33 -2 75 21 33 23 34 49 21 15 -8 33 -14 41 -14z"/>
<path d="M1965 2450 c-26 -33 -49 -60 -51 -60 -1 0 -32 14 -69 30 -37 17 -68
30 -70 30 -2 0 14 -27 35 -60 22 -32 40 -63 40 -68 0 -4 -24 -35 -52 -67 -29
-32 -45 -56 -35 -52 10 4 45 14 79 22 50 13 63 14 70 3 4 -7 23 -38 41 -68
l32 -55 5 80 5 79 75 16 75 17 -35 15 c-19 8 -52 21 -72 28 l-38 14 6 55 c3
31 7 66 10 79 2 12 3 22 1 22 -2 0 -26 -27 -52 -60z m5 -82 c0 -6 10 -22 21
-35 l22 -22 -30 -31 c-30 -30 -31 -31 -72 -18 -27 9 -39 17 -36 26 3 8 5 26 5
41 0 21 6 29 33 38 45 14 57 15 57 1z"/>
<path d="M730 2205 l-54 -55 -63 35 c-35 19 -66 35 -68 35 -3 0 12 -30 32 -67
l37 -67 -60 -54 c-56 -52 -58 -55 -28 -49 17 3 53 9 81 13 l49 6 28 -66 c16
-37 30 -65 32 -63 3 2 10 35 17 73 l12 69 40 7 c22 4 58 7 80 8 l40 1 -70 36
c-38 19 -72 37 -73 38 -2 2 3 36 11 77 9 40 14 74 13 75 -1 1 -26 -22 -56 -52z
m9 -105 l20 -39 -30 -31 c-17 -16 -32 -30 -34 -30 -2 0 -19 10 -38 23 -29 20
-33 26 -25 46 5 13 6 32 3 41 -4 14 0 17 22 14 15 -1 34 1 43 6 8 5 16 10 16
10 1 0 11 -18 23 -40z"/>
<path d="M2213 2230 c3 -14 9 -47 12 -75 l7 -50 -69 -35 -68 -35 75 -9 c41 -5
76 -10 78 -12 2 -1 9 -37 15 -79 l12 -77 35 72 c33 68 36 71 65 66 16 -2 50
-7 75 -11 l45 -6 -53 48 c-28 26 -52 54 -52 62 0 8 14 38 30 68 17 29 30 55
30 59 0 3 -30 -11 -66 -31 l-66 -37 -55 53 c-47 46 -55 50 -50 29z m132 -106
c12 4 15 -1 14 -22 -1 -15 1 -34 5 -43 5 -10 -5 -22 -31 -40 l-38 -24 -33 36
c-28 32 -30 38 -17 49 8 7 15 20 15 30 0 25 9 29 41 18 16 -5 36 -7 44 -4z"/>
<path d="M1395 2090 c-82 -11 -176 -36 -240 -65 -441 -195 -637 -716 -433
-1147 224 -470 802 -636 1240 -356 190 122 340 349 379 574 19 108 7 292 -26
394 -101 318 -366 546 -693 595 -105 16 -135 17 -227 5z m299 -45 c81 -21 165
-56 234 -96 85 -51 238 -209 289 -299 179 -321 133 -709 -115 -972 -113 -120
-225 -189 -379 -233 -433 -126 -883 120 -1023 560 -34 108 -40 312 -11 425 81
322 334 563 656 626 87 17 267 11 349 -11z"/>
<path d="M1337 2005 c-27 -7 -51 -15 -53 -18 -4 -4 24 -136 31 -144 5 -7 115
21 115 28 0 12 -27 11 -67 0 -27 -8 -33 -7 -38 10 -8 24 1 39 25 39 26 0 50
10 50 22 0 9 -22 7 -72 -8 -14 -4 -18 1 -18 19 0 22 6 26 40 32 25 4 40 12 40
21 0 8 -1 14 -2 13 -2 0 -25 -7 -51 -14z"/>
<path d="M1520 2005 c-20 -24 -7 -49 38 -70 48 -22 53 -48 10 -53 -19 -2 -31
3 -40 17 -15 24 -28 27 -28 8 0 -23 35 -47 66 -47 36 0 54 16 54 47 0 19 -10
28 -46 43 -26 12 -44 25 -42 33 7 18 43 20 61 3 19 -20 27 -20 27 -1 0 32 -77
48 -100 20z"/>
<path d="M1662 1932 c-25 -78 -26 -82 -12 -82 5 0 12 11 16 25 6 24 9 25 48
20 31 -5 45 -3 55 9 19 23 9 59 -19 72 -64 30 -64 29 -88 -44z m92 18 c5 -5 6
-16 2 -26 -5 -13 -14 -15 -38 -10 -39 8 -38 7 -31 35 5 18 10 21 32 16 14 -4
30 -10 35 -15z"/>
<path d="M1155 1935 c-30 -29 -31 -50 -5 -93 21 -33 24 -36 73 -47 24 -5 27
-8 17 -20 -7 -9 -8 -15 -2 -15 5 0 15 7 22 15 10 12 9 16 -4 21 -15 6 -15 9 3
26 22 19 29 58 11 58 -5 0 -10 -8 -10 -18 0 -45 -59 -57 -85 -18 -33 49 1 116
44 89 23 -14 35 -5 20 14 -18 21 -58 15 -84 -12z"/>
<path d="M1806 1889 c-33 -38 -33 -73 -1 -104 41 -42 96 -28 121 30 35 85 -61
144 -120 74z m92 -1 c29 -29 -2 -108 -43 -108 -19 0 -55 35 -55 54 0 7 9 25
21 40 22 27 57 34 77 14z"/>
<path d="M1050 1879 c0 -7 8 -21 17 -32 17 -18 17 -20 -12 -43 l-30 -24 -21
26 c-14 17 -24 22 -28 15 -8 -13 73 -120 92 -120 18 -1 15 10 -10 37 l-23 24
29 25 30 25 22 -26 c21 -23 44 -35 44 -21 0 8 -92 120 -101 123 -5 2 -9 -2 -9
-9z"/>
<path d="M1953 1780 c-48 -44 -65 -70 -46 -70 4 0 17 10 30 22 20 19 25 20 38
7 11 -11 12 -23 5 -53 -9 -42 -5 -60 11 -51 5 4 9 21 9 40 0 30 3 34 26 32 17
-1 31 6 40 19 13 19 12 25 -18 62 -18 23 -35 41 -38 41 -3 0 -29 -22 -57 -49z
m87 -13 c12 -21 12 -29 2 -39 -10 -10 -18 -7 -39 14 -22 23 -24 29 -13 43 17
20 31 15 50 -18z"/>
<path d="M1351 1784 c-129 -35 -255 -128 -331 -246 -113 -174 -114 -421 -1
-597 75 -116 206 -211 342 -246 96 -26 242 -17 334 20 319 127 457 486 300
784 -101 191 -284 302 -498 300 -51 0 -116 -7 -146 -15z m129 -14 c0 -16 -143
-154 -192 -185 -27 -17 -48 -33 -48 -38 0 -20 88 42 169 119 l91 86 46 -51
c51 -56 140 -128 192 -155 18 -9 30 -21 27 -26 -3 -5 3 -11 12 -13 10 -3 -117
-5 -282 -6 -208 0 -295 3 -282 10 9 5 17 16 17 23 0 10 -15 8 -62 -9 -71 -25
-138 -38 -138 -26 0 15 58 89 107 136 58 56 165 110 253 129 81 18 90 18 90 6z
m160 -17 c114 -31 217 -102 286 -195 24 -34 42 -63 40 -65 -14 -14 -176 41
-240 81 -66 42 -216 179 -216 198 0 10 52 3 130 -19z m340 -307 c0 -41 -14
-118 -35 -191 l-16 -55 -70 0 c-38 0 -69 4 -69 9 0 17 -33 21 -50 6 -12 -11
-39 -15 -98 -15 l-82 0 12 25 c8 19 8 31 0 50 -6 14 -9 32 -6 40 4 8 -1 26
-10 40 -9 13 -16 33 -16 43 0 45 -45 55 -63 15 -7 -16 -20 -40 -30 -55 -11
-16 -16 -35 -12 -47 3 -10 1 -22 -5 -26 -14 -9 -13 -58 2 -73 9 -9 -5 -12 -64
-12 -55 0 -79 4 -88 15 -7 8 -21 15 -32 15 -10 0 -21 -7 -24 -15 -5 -12 -24
-15 -84 -15 l-77 0 -16 58 c-16 57 -37 172 -37 205 0 16 30 17 485 17 l485 0
0 -34z m36 -83 c65 -276 -94 -547 -373 -638 -29 -9 -58 -13 -65 -9 -7 5 -23 7
-35 5 -22 -2 -23 1 -23 64 0 59 2 67 22 74 13 4 38 4 56 -1 49 -14 52 -2 3 13
-31 9 -47 9 -66 1 -24 -11 -25 -16 -25 -92 0 -64 -3 -80 -15 -80 -12 0 -15 15
-15 78 0 85 -8 102 -49 102 -37 0 -72 -11 -66 -20 3 -5 19 -5 36 0 54 16 69
-1 69 -75 0 -58 -2 -65 -20 -65 -19 0 -180 144 -180 161 0 4 19 1 42 -7 30
-10 39 -11 30 -2 -6 6 -27 17 -44 22 -25 8 -34 18 -36 38 -2 17 -15 36 -33 48
-17 13 -29 30 -29 44 0 12 -7 31 -15 42 -14 18 -15 16 -10 -21 6 -38 5 -39
-10 -20 -8 11 -21 27 -28 35 -17 21 -42 99 -33 107 7 7 114 8 121 1 2 -2 5
-17 7 -33 2 -24 -1 -30 -16 -28 -18 1 -18 1 0 -17 11 -11 32 -21 49 -24 16 -3
35 -12 41 -21 6 -8 17 -15 25 -15 7 0 23 -12 35 -27 12 -16 26 -25 30 -20 11
11 -51 62 -110 91 l-51 25 54 -6 c40 -5 52 -3 47 5 -4 7 -22 12 -40 12 -35 0
-61 21 -53 42 2 7 0 21 -5 32 -17 32 7 42 34 14 13 -13 31 -27 41 -31 9 -4 22
-18 27 -32 5 -14 14 -25 20 -25 6 0 6 7 -1 19 -7 10 -10 25 -6 33 8 21 58 11
64 -13 3 -11 9 -19 13 -19 5 0 14 -15 21 -32 7 -18 15 -37 17 -43 3 -5 -1 -4
-9 3 -7 6 -18 12 -23 12 -12 0 34 -39 47 -40 15 0 6 31 -25 80 -29 46 -30 52
-16 67 14 14 14 19 1 50 -10 25 -11 39 -4 46 6 6 11 20 11 32 0 28 42 114 57
115 7 0 16 -12 19 -27 4 -16 11 -34 17 -40 5 -7 7 -24 5 -38 -3 -14 -1 -28 3
-31 15 -9 10 -58 -7 -83 -12 -17 -13 -26 -5 -34 17 -17 13 -41 -9 -70 -21 -26
-27 -67 -11 -67 16 0 22 18 9 23 -9 4 -10 8 -2 14 20 15 38 57 35 83 -2 24 1
25 46 25 44 0 48 -2 47 -22 0 -13 -11 -32 -24 -43 -13 -11 -19 -20 -14 -20 17
1 43 27 53 53 6 15 18 27 28 27 9 0 27 9 39 21 27 25 49 18 34 -11 -13 -24
-13 -50 0 -50 6 0 10 6 10 14 0 8 5 18 11 22 12 7 99 8 106 1 6 -7 -14 -53
-47 -104 l-31 -48 6 35 c7 33 6 34 -9 15 -8 -11 -16 -31 -16 -45 0 -33 -10
-47 -42 -59 -19 -7 -28 -18 -30 -38 -2 -22 -9 -29 -30 -31 -14 -2 -32 -10 -38
-18 -15 -17 -10 -17 24 -4 42 16 31 -5 -41 -75 -36 -36 -61 -65 -55 -65 20 0
141 121 201 201 104 138 200 362 201 468 0 47 10 33 26 -36z m-989 -88 c24
-93 124 -280 201 -375 63 -79 151 -161 183 -172 8 -3 11 -9 7 -13 -4 -4 -39 3
-78 15 -235 75 -394 304 -377 540 3 41 12 93 18 115 l13 40 9 -45 c4 -25 15
-72 24 -105z m207 -324 c10 -11 16 -25 14 -31 -2 -6 -14 3 -26 19 -25 34 -15
42 12 12z"/>
<path d="M1492 1337 c-11 -13 -10 -35 2 -97 5 -25 4 -31 -3 -20 -5 8 -13 12
-16 8 -3 -3 1 -13 11 -22 11 -11 14 -25 10 -42 -5 -17 -3 -23 4 -19 5 3 10 16
10 29 0 12 6 28 13 35 8 10 9 12 0 7 -15 -8 -28 52 -20 100 6 37 5 40 -11 21z"/>
<path d="M1710 1104 c-45 -12 -45 -12 -10 -13 19 0 42 3 50 9 24 15 8 17 -40
4z"/>
<path d="M1740 1071 c-20 -3 -49 -16 -65 -28 -28 -21 -29 -22 -8 -23 12 0 27
9 33 20 7 14 21 20 45 20 18 0 37 5 40 10 3 6 3 9 -2 9 -4 -1 -24 -5 -43 -8z"/>
<path d="M1422 1038 c15 -13 32 -36 37 -51 14 -36 14 -77 1 -77 -5 0 -10 9
-10 20 0 11 -4 20 -10 20 -5 0 -10 7 -10 15 0 8 -4 15 -9 15 -11 0 5 -57 22
-77 22 -29 37 -14 37 40 0 60 -3 65 -50 96 l-35 23 27 -24z"/>
<path d="M1542 1022 c-17 -14 -24 -31 -29 -74 -3 -31 -1 -58 4 -61 16 -10 50
21 56 52 4 19 14 32 29 37 24 7 38 22 38 39 0 6 -3 6 -8 0 -4 -6 -22 -21 -39
-34 -18 -12 -36 -33 -39 -47 -9 -37 -24 -28 -24 15 0 24 8 48 21 65 24 30 22
32 -9 8z"/>
<path d="M1250 1015 c19 -23 130 -95 130 -84 0 6 -14 18 -31 27 -18 9 -47 29
-64 45 -35 29 -55 36 -35 12z"/>
<path d="M1680 974 c-36 -25 -67 -49 -69 -55 -2 -6 9 -3 25 8 16 11 48 32 72
48 23 15 42 32 42 36 0 11 7 15 -70 -37z"/>
<path d="M887 1733 c-3 -5 14 -42 37 -82 24 -40 47 -68 50 -62 4 5 1 19 -5 29
-9 15 -8 24 5 45 15 22 21 25 43 16 14 -5 28 -7 30 -5 12 11 -11 24 -69 41
-34 9 -67 19 -74 22 -7 2 -14 0 -17 -4z m83 -44 c0 -4 -6 -12 -14 -18 -10 -9
-17 -6 -30 13 -22 34 -21 36 14 23 17 -6 30 -14 30 -18z"/>
<path d="M2095 1608 c-72 -36 -69 -34 -60 -47 4 -7 14 -6 29 4 13 9 30 13 39
9 15 -5 14 -10 -4 -46 -11 -22 -18 -47 -16 -56 3 -11 12 1 27 33 12 28 24 52
26 54 2 2 22 -4 45 -13 30 -12 40 -13 37 -4 -2 7 -25 20 -51 29 -61 20 -63 24
-27 39 16 7 30 16 30 21 0 14 -10 11 -75 -23z"/>
<path d="M818 1613 c-22 -26 -40 -62 -34 -71 2 -4 32 -21 66 -37 61 -29 62
-29 76 -10 36 49 27 100 -17 100 -13 0 -30 8 -37 18 -7 9 -19 17 -26 17 -7 0
-20 -8 -28 -17z m43 -46 c-10 -27 -39 -34 -47 -12 -9 22 25 58 42 44 8 -7 10
-18 5 -32z m64 2 c4 -5 2 -23 -5 -39 -11 -26 -14 -28 -35 -18 -23 10 -23 12
-9 39 15 29 37 38 49 18z"/>
<path d="M2175 1473 c-64 -19 -75 -29 -75 -64 0 -41 34 -73 68 -64 80 19 102
27 102 36 0 7 -12 8 -32 3 -18 -5 -51 -8 -73 -9 -38 0 -40 2 -40 30 0 28 4 31
58 45 32 8 57 20 57 27 0 15 -1 15 -65 -4z"/>
<path d="M751 1461 c-6 -10 -13 -36 -17 -58 l-6 -40 62 -12 c34 -7 68 -15 76
-18 8 -3 14 1 14 11 0 9 -8 16 -19 16 -60 0 -60 40 -1 64 38 15 61 36 40 36
-6 0 -26 -7 -45 -14 -33 -14 -35 -14 -35 3 0 33 -53 42 -69 12z m48 -15 c16
-19 3 -79 -16 -72 -8 4 -19 6 -24 6 -12 0 -12 22 1 54 11 29 22 33 39 12z"/>
<path d="M720 1283 c0 -21 -3 -48 -6 -60 -6 -22 -4 -23 75 -23 l81 0 0 55 c0
30 -4 55 -10 55 -5 0 -10 -20 -10 -45 0 -41 -2 -45 -25 -45 -23 0 -25 4 -25
45 0 25 -4 45 -10 45 -5 0 -10 -21 -10 -46 0 -41 -2 -45 -22 -42 -20 3 -22 8
-19 51 1 29 -2 47 -8 47 -6 0 -11 -17 -11 -37z"/>
<path d="M2188 1312 l-68 -3 0 -49 c0 -28 5 -50 10 -50 6 0 10 18 10 40 l0 39
68 3 c37 2 66 7 65 13 -2 12 -2 12 -85 7z"/>
<path d="M2126 1174 c-24 -24 -20 -71 8 -89 29 -19 126 -32 126 -17 0 6 -21
14 -47 18 -61 8 -83 20 -83 43 0 33 24 43 89 35 72 -8 86 10 15 20 -71 9 -91
7 -108 -10z"/>
<path d="M805 1165 c-5 -2 -27 -6 -47 -10 -21 -3 -38 -11 -38 -17 0 -10 20 -8
100 8 21 5 16 -3 -27 -41 -60 -53 -69 -80 -25 -71 15 3 48 8 75 12 28 4 47 11
47 19 0 10 -9 11 -37 4 -77 -18 -81 -12 -25 37 28 25 52 50 52 55 0 8 -53 11
-75 4z"/>
<path d="M2082 1026 c-23 -62 -7 -102 36 -94 10 2 26 -3 35 -10 9 -8 25 -11
36 -7 20 6 54 75 43 87 -4 3 -37 18 -73 31 l-66 25 -11 -32z m67 -12 c2 -2 -2
-17 -9 -34 -21 -51 -57 -35 -45 21 6 25 10 29 28 23 12 -3 24 -8 26 -10z m53
-44 c-4 -35 -19 -47 -36 -30 -19 20 -3 63 21 58 12 -3 17 -12 15 -28z"/>
<path d="M887 1034 c-3 -4 3 -24 14 -46 11 -22 19 -41 17 -42 -32 -26 -43 -23
-60 15 -9 21 -22 39 -28 39 -14 0 -13 -5 10 -49 17 -34 18 -40 4 -45 -27 -10
-31 -7 -48 34 -9 22 -20 40 -26 40 -14 0 -13 -3 12 -57 13 -27 23 -49 24 -51
0 -1 33 12 72 29 l70 31 -19 47 c-23 51 -32 64 -42 55z"/>
<path d="M2015 894 c-14 -15 -25 -35 -25 -45 0 -19 87 -99 108 -99 22 0 13 18
-21 39 -54 33 -70 56 -57 80 14 27 44 27 83 -3 46 -33 55 -37 61 -27 6 9 -99
81 -117 81 -4 0 -19 -12 -32 -26z"/>
<path d="M897 864 c-4 -4 2 -19 13 -34 24 -34 24 -36 3 -44 -12 -5 -26 3 -45
26 -14 18 -29 30 -33 26 -7 -7 46 -87 58 -88 4 0 35 19 67 42 61 43 74 74 15
38 -33 -20 -34 -20 -40 -1 -7 23 -29 43 -38 35z"/>
<path d="M1053 726 c4 -9 9 -22 12 -29 3 -7 -7 -20 -22 -29 l-28 -17 32 -1
c25 0 33 -5 41 -27 l10 -28 7 28 c6 22 13 27 38 27 l31 0 -22 16 c-19 13 -22
22 -16 47 6 32 6 32 -14 13 -21 -18 -23 -18 -48 -1 -24 15 -26 16 -21 1z"/>
<path d="M1853 727 c4 -9 9 -23 12 -30 3 -8 -6 -19 -21 -28 l-27 -14 34 -5
c26 -4 35 -10 37 -28 4 -26 22 -20 22 9 0 15 7 19 33 19 l32 0 -25 19 c-21 17
-23 22 -12 45 13 30 7 33 -19 10 -16 -14 -20 -14 -45 3 -26 17 -28 17 -21 0z"/>
<path d="M1653 636 c-51 -12 -58 -31 -8 -22 34 7 35 6 25 -19 -13 -34 -13
-105 0 -105 6 0 10 15 10 33 0 17 5 49 11 70 6 21 9 41 7 45 -2 4 -22 3 -45
-2z"/>
<path d="M1303 633 c-26 -5 -31 -23 -8 -23 18 0 18 4 -1 -54 -14 -42 -14 -69
1 -54 10 9 44 138 37 137 -4 -1 -17 -4 -29 -6z"/>
<path d="M1391 606 c-7 -8 -11 -27 -9 -43 2 -23 8 -29 36 -31 28 -3 31 -6 22
-23 -13 -23 -38 -25 -46 -4 -8 20 -24 19 -24 0 0 -9 11 -21 25 -27 21 -9 28
-8 45 7 25 22 36 79 21 111 -12 27 -51 33 -70 10z m54 -36 c0 -16 -6 -26 -18
-28 -19 -4 -32 20 -23 44 9 25 41 13 41 -16z"/>
<path d="M1516 604 c-20 -20 -21 -83 0 -112 34 -49 92 -4 80 63 -11 58 -48 81
-80 49z m55 -39 c15 -55 -8 -94 -39 -63 -13 13 -17 80 -5 92 14 14 37 0 44
-29z"/>
</g>
</svg>
